<?xml version="1.0" encoding="utf-8"?>
<!-- Generator: Adobe Illustrator 27.7.0, SVG Export Plug-In . SVG Version: 6.00 Build 0)  -->
<svg version="1.1" id="圖層_1" xmlns="http://www.w3.org/2000/svg" xmlns:xlink="http://www.w3.org/1999/xlink" x="0px" y="0px"
	 viewBox="0 0 933 147" style="enable-background:new 0 0 933 147;" xml:space="preserve">
<style type="text/css">
	.st0{fill:#FFFFFF;}
</style>
<g>
	<path class="st0" d="M122.5,0C55.1,0,0.5,33,0.5,73.6s54.6,73.6,122,73.6s122-33,122-73.6S189.9,0,122.5,0z M194.7,88.3
		c-5-1.1-12.1-8.4-21.1-9.9c-9.1-1.5-15.8-0.4-19.9,7.6c-4.1,8-9.5,25.5-11,28.3c-1.5,2.8-12.9,9.9-25.7,0.6c-2.6-1.7-7.3-9.7-5-19
		c2.4-9.3,14-9.5,15.1-2.6c-2.4-0.4-7.8,0.2-5.2,5.8s11.7,3.9,14-1.5c2.4-5.4,2.6-10.4-1.9-14.2c-4.5-3.9-9.3-7.3-15.3-5.6
		c-6,1.7-13.6,7.8-18.1,10.1c-4.5,2.4-16.2,5.4-24.2,1.7c-8-3.7-17.7-14-25.9-16.8c-8.2-2.8-12.7-5.6-19.4-3.9
		c-6.9,2.2-13.2,4.2-13.2,1.9c0.2-1.1,13.5-12.3,30.2-9.3C62.8,64.1,61.5,71,77,71.6c12.6,0.5,16-12.1,18.3-22
		c2.6-11,12.3-24.6,28.5-17c15.5,10.8,6.9,24,5.6,25.7c-1.3,1.7-10.8,5.6-10.4,0.6c1.1-1.3,4.5-3.2,4.3-5.4
		c-0.2-2.2-2.2-6.5-6.9-6.5c-4.7,0-9.7,4.3-9.5,9.9c0.2,5.6,1.3,14,16.6,15.5c10.6,0.2,17.5-12.1,31.9-13.4
		c14.5-1.3,23.3,7.8,35.6,16.2s32.2,3.5,36.9,1.7C225.1,81,216.2,90.3,194.7,88.3z"/>
	<path class="st0" d="M297.3,113.5h-4c-0.2-1.1-0.6-2.1-1.2-3c-0.6-0.9-1.3-1.6-2.1-2.2c-0.8-0.6-1.7-1-2.7-1.3
		c-1-0.3-2-0.4-3.1-0.4c-2,0-3.8,0.5-5.4,1.5c-1.6,1-2.9,2.5-3.8,4.4c-0.9,2-1.4,4.3-1.4,7.2c0,2.8,0.5,5.2,1.4,7.2
		c0.9,2,2.2,3.4,3.8,4.4c1.6,1,3.4,1.5,5.4,1.5c1.1,0,2.1-0.1,3.1-0.4c1-0.3,1.9-0.7,2.7-1.3c0.8-0.6,1.5-1.3,2.1-2.2
		c0.6-0.9,1-1.9,1.2-3h4c-0.3,1.7-0.8,3.2-1.6,4.5c-0.8,1.3-1.8,2.4-2.9,3.4c-1.2,0.9-2.5,1.6-3.9,2.1c-1.4,0.5-3,0.7-4.6,0.7
		c-2.8,0-5.3-0.7-7.4-2c-2.2-1.4-3.9-3.3-5.1-5.8c-1.2-2.5-1.9-5.5-1.9-8.9c0-3.5,0.6-6.4,1.9-8.9c1.2-2.5,3-4.5,5.1-5.8
		c2.2-1.4,4.7-2,7.4-2c1.7,0,3.2,0.2,4.6,0.7c1.5,0.5,2.8,1.2,3.9,2.1c1.2,0.9,2.2,2,2.9,3.4C296.5,110.3,297,111.8,297.3,113.5z
		 M313.5,136.5c-2.4,0-4.4-0.5-6.1-1.6c-1.7-1.1-3-2.5-3.9-4.4c-0.9-1.9-1.4-4.1-1.4-6.6s0.5-4.7,1.4-6.6c0.9-1.9,2.2-3.4,3.9-4.5
		c1.7-1.1,3.6-1.6,5.8-1.6c1.3,0,2.5,0.2,3.8,0.6c1.2,0.4,2.4,1.1,3.4,2.1c1,0.9,1.8,2.2,2.4,3.8c0.6,1.6,0.9,3.5,0.9,5.8v1.6h-18.9
		v-3.3h15.1c0-1.4-0.3-2.6-0.8-3.7c-0.5-1.1-1.3-1.9-2.3-2.6c-1-0.6-2.2-0.9-3.5-0.9c-1.5,0-2.8,0.4-3.9,1.1
		c-1.1,0.7-1.9,1.7-2.5,2.9c-0.6,1.2-0.9,2.5-0.9,3.8v2.2c0,1.9,0.3,3.4,1,4.7c0.6,1.3,1.6,2.3,2.7,2.9c1.2,0.7,2.5,1,4,1
		c1,0,1.9-0.1,2.7-0.4c0.8-0.3,1.5-0.7,2.1-1.3c0.6-0.6,1-1.3,1.4-2.1l3.6,1c-0.4,1.2-1,2.3-1.9,3.3c-0.9,0.9-2,1.7-3.4,2.2
		C316.6,136.3,315.1,136.5,313.5,136.5z M333.2,121.2V136h-3.8v-24.5h3.6v3.8h0.3c0.6-1.2,1.4-2.2,2.6-3c1.2-0.8,2.7-1.2,4.5-1.2
		c1.7,0,3.1,0.3,4.4,1c1.2,0.7,2.2,1.7,2.9,3.1c0.7,1.4,1,3.1,1,5.2V136H345v-15.3c0-1.9-0.5-3.4-1.5-4.5c-1-1.1-2.4-1.6-4.1-1.6
		c-1.2,0-2.3,0.3-3.2,0.8c-0.9,0.5-1.7,1.3-2.2,2.3C333.4,118.6,333.2,119.8,333.2,121.2z M366.4,111.5v3.2h-12.7v-3.2H366.4z
		 M357.4,105.6h3.8V129c0,1.1,0.2,1.9,0.5,2.4c0.3,0.5,0.7,0.9,1.2,1.1c0.5,0.2,1,0.3,1.6,0.3c0.4,0,0.8,0,1-0.1
		c0.3-0.1,0.5-0.1,0.6-0.1l0.8,3.4c-0.3,0.1-0.6,0.2-1.1,0.3c-0.5,0.1-1,0.2-1.7,0.2c-1.1,0-2.1-0.2-3.1-0.7c-1-0.5-1.9-1.2-2.5-2.1
		c-0.7-0.9-1-2.1-1-3.5V105.6z M372.1,136v-24.5h3.6v3.7h0.3c0.4-1.2,1.3-2.2,2.4-3c1.2-0.8,2.5-1.1,4-1.1c0.3,0,0.6,0,1,0
		c0.4,0,0.7,0,0.9,0v3.8c-0.1,0-0.4-0.1-0.9-0.1c-0.4-0.1-0.9-0.1-1.4-0.1c-1.2,0-2.3,0.3-3.2,0.8c-0.9,0.5-1.7,1.2-2.2,2
		c-0.5,0.9-0.8,1.8-0.8,3V136H372.1z M396,136.6c-1.6,0-3-0.3-4.2-0.9c-1.3-0.6-2.3-1.5-3-2.6c-0.7-1.1-1.1-2.5-1.1-4.1
		c0-1.4,0.3-2.5,0.8-3.4c0.6-0.9,1.3-1.6,2.2-2.1c0.9-0.5,2-0.9,3.1-1.1c1.1-0.3,2.3-0.5,3.4-0.6c1.5-0.2,2.7-0.3,3.6-0.4
		c0.9-0.1,1.6-0.3,2-0.5c0.4-0.2,0.7-0.7,0.7-1.3v-0.1c0-1.6-0.4-2.8-1.3-3.7c-0.9-0.9-2.1-1.3-3.9-1.3c-1.8,0-3.2,0.4-4.2,1.2
		c-1,0.8-1.7,1.6-2.2,2.5l-3.6-1.3c0.6-1.5,1.5-2.7,2.6-3.5c1.1-0.8,2.2-1.4,3.5-1.8c1.3-0.3,2.5-0.5,3.8-0.5c0.8,0,1.7,0.1,2.7,0.3
		c1,0.2,2,0.6,3,1.1c1,0.6,1.8,1.4,2.4,2.6c0.6,1.2,1,2.7,1,4.7V136h-3.8v-3.3h-0.2c-0.3,0.5-0.7,1.1-1.3,1.7
		c-0.6,0.6-1.4,1.1-2.4,1.6C398.7,136.4,397.4,136.6,396,136.6z M396.6,133.2c1.5,0,2.7-0.3,3.8-0.9c1-0.6,1.8-1.3,2.3-2.3
		c0.5-0.9,0.8-1.9,0.8-2.9v-3.5c-0.2,0.2-0.5,0.4-1.1,0.5c-0.5,0.1-1.1,0.3-1.9,0.4c-0.7,0.1-1.4,0.2-2,0.3
		c-0.6,0.1-1.2,0.1-1.6,0.2c-1,0.1-1.9,0.3-2.7,0.6c-0.8,0.3-1.5,0.7-2,1.3c-0.5,0.6-0.8,1.3-0.8,2.3c0,1.3,0.5,2.3,1.5,3
		C393.9,132.9,395.1,133.2,396.6,133.2z M417.9,103.3V136h-3.8v-32.7H417.9z M443.9,136l-8.9-32.7h4l6.8,26.7h0.3l7-26.7h4.5l7,26.7
		h0.3l6.8-26.7h4l-8.9,32.7h-4.1l-7.2-26.1h-0.3L448,136H443.9z M488.2,136.5c-2.4,0-4.4-0.5-6.1-1.6c-1.7-1.1-3-2.5-3.9-4.4
		c-0.9-1.9-1.4-4.1-1.4-6.6s0.5-4.7,1.4-6.6c0.9-1.9,2.2-3.4,3.9-4.5c1.7-1.1,3.6-1.6,5.8-1.6c1.3,0,2.5,0.2,3.8,0.6
		c1.2,0.4,2.4,1.1,3.4,2.1c1,0.9,1.8,2.2,2.4,3.8s0.9,3.5,0.9,5.8v1.6h-18.9v-3.3h15.1c0-1.4-0.3-2.6-0.8-3.7
		c-0.5-1.1-1.3-1.9-2.3-2.6c-1-0.6-2.2-0.9-3.5-0.9c-1.5,0-2.8,0.4-3.9,1.1c-1.1,0.7-1.9,1.7-2.5,2.9c-0.6,1.2-0.9,2.5-0.9,3.8v2.2
		c0,1.9,0.3,3.4,1,4.7c0.6,1.3,1.5,2.3,2.7,2.9c1.1,0.7,2.5,1,4,1c1,0,1.9-0.1,2.7-0.4c0.8-0.3,1.5-0.7,2.1-1.3
		c0.6-0.6,1-1.3,1.4-2.1l3.6,1c-0.4,1.2-1,2.3-1.9,3.3c-0.9,0.9-2,1.7-3.4,2.2C491.4,136.3,489.9,136.5,488.2,136.5z M511.3,136.6
		c-1.6,0-3-0.3-4.2-0.9c-1.3-0.6-2.3-1.5-3-2.6c-0.7-1.1-1.1-2.5-1.1-4.1c0-1.4,0.3-2.5,0.8-3.4c0.6-0.9,1.3-1.6,2.2-2.1
		c0.9-0.5,1.9-0.9,3.1-1.1c1.1-0.3,2.3-0.5,3.4-0.6c1.5-0.2,2.7-0.3,3.6-0.4c0.9-0.1,1.6-0.3,2-0.5c0.4-0.2,0.7-0.7,0.7-1.3v-0.1
		c0-1.6-0.4-2.8-1.3-3.7c-0.9-0.9-2.1-1.3-3.9-1.3c-1.8,0-3.2,0.4-4.2,1.2c-1,0.8-1.7,1.6-2.2,2.5l-3.6-1.3c0.6-1.5,1.5-2.7,2.6-3.5
		c1.1-0.8,2.2-1.4,3.5-1.8c1.3-0.3,2.5-0.5,3.8-0.5c0.8,0,1.7,0.1,2.7,0.3c1,0.2,2,0.6,3,1.1c1,0.6,1.8,1.4,2.4,2.6
		c0.6,1.2,1,2.7,1,4.7V136h-3.8v-3.3h-0.2c-0.3,0.5-0.7,1.1-1.3,1.7c-0.6,0.6-1.4,1.1-2.4,1.6C514,136.4,512.8,136.6,511.3,136.6z
		 M511.9,133.2c1.5,0,2.7-0.3,3.8-0.9c1-0.6,1.8-1.3,2.3-2.3c0.5-0.9,0.8-1.9,0.8-2.9v-3.5c-0.2,0.2-0.5,0.4-1.1,0.5
		c-0.5,0.1-1.2,0.3-1.9,0.4c-0.7,0.1-1.4,0.2-2,0.3c-0.6,0.1-1.2,0.1-1.6,0.2c-1,0.1-1.9,0.3-2.7,0.6c-0.8,0.3-1.5,0.7-2,1.3
		c-0.5,0.6-0.8,1.3-0.8,2.3c0,1.3,0.5,2.3,1.5,3C509.2,132.9,510.4,133.2,511.9,133.2z M540.1,111.5v3.2h-12.7v-3.2H540.1z
		 M531.1,105.6h3.8V129c0,1.1,0.2,1.9,0.5,2.4c0.3,0.5,0.7,0.9,1.2,1.1c0.5,0.2,1,0.3,1.6,0.3c0.4,0,0.8,0,1-0.1
		c0.3-0.1,0.5-0.1,0.6-0.1l0.8,3.4c-0.3,0.1-0.6,0.2-1.1,0.3c-0.5,0.1-1,0.2-1.7,0.2c-1.1,0-2.1-0.2-3.1-0.7c-1-0.5-1.9-1.2-2.5-2.1
		c-0.7-0.9-1-2.1-1-3.5V105.6z M550.1,121.2V136h-3.8v-32.7h3.8v12h0.3c0.6-1.3,1.4-2.3,2.6-3c1.2-0.8,2.7-1.1,4.6-1.1
		c1.7,0,3.1,0.3,4.4,1c1.3,0.7,2.2,1.7,2.9,3.1c0.7,1.4,1.1,3.1,1.1,5.2V136h-3.8v-15.3c0-1.9-0.5-3.5-1.5-4.5
		c-1-1.1-2.4-1.6-4.2-1.6c-1.2,0-2.3,0.3-3.3,0.8c-1,0.5-1.7,1.3-2.3,2.3C550.4,118.6,550.1,119.8,550.1,121.2z M583.2,136.5
		c-2.4,0-4.4-0.5-6.1-1.6c-1.7-1.1-3-2.5-3.9-4.4c-0.9-1.9-1.4-4.1-1.4-6.6s0.5-4.7,1.4-6.6c0.9-1.9,2.2-3.4,3.9-4.5
		c1.7-1.1,3.6-1.6,5.8-1.6c1.3,0,2.5,0.2,3.8,0.6c1.2,0.4,2.4,1.1,3.4,2.1c1,0.9,1.8,2.2,2.4,3.8s0.9,3.5,0.9,5.8v1.6h-18.9v-3.3
		h15.1c0-1.4-0.3-2.6-0.8-3.7c-0.5-1.1-1.3-1.9-2.3-2.6c-1-0.6-2.2-0.9-3.5-0.9c-1.5,0-2.8,0.4-3.9,1.1c-1.1,0.7-1.9,1.7-2.5,2.9
		c-0.6,1.2-0.9,2.5-0.9,3.8v2.2c0,1.9,0.3,3.4,1,4.7c0.6,1.3,1.5,2.3,2.7,2.9c1.2,0.7,2.5,1,4,1c1,0,1.9-0.1,2.7-0.4
		c0.8-0.3,1.5-0.7,2.1-1.3c0.6-0.6,1-1.3,1.4-2.1l3.6,1c-0.4,1.2-1,2.3-1.9,3.3c-0.9,0.9-2,1.7-3.4,2.2
		C586.4,136.3,584.9,136.5,583.2,136.5z M599.1,136v-24.5h3.6v3.7h0.3c0.4-1.2,1.3-2.2,2.4-3c1.2-0.8,2.5-1.1,4-1.1c0.3,0,0.6,0,1,0
		c0.4,0,0.7,0,0.9,0v3.8c-0.1,0-0.4-0.1-0.9-0.1c-0.4-0.1-0.9-0.1-1.4-0.1c-1.2,0-2.3,0.3-3.2,0.8c-0.9,0.5-1.7,1.2-2.2,2
		c-0.5,0.9-0.8,1.8-0.8,3V136H599.1z M630.4,136h-4.2l12-32.7h4.1l12,32.7h-4.2l-9.8-27.6h-0.3L630.4,136z M631.9,123.2h16.7v3.5
		h-16.7V123.2z M668.2,136.5c-2,0-3.9-0.5-5.4-1.6c-1.6-1-2.8-2.5-3.7-4.4c-0.9-1.9-1.3-4.2-1.3-6.8c0-2.6,0.4-4.8,1.3-6.7
		c0.9-1.9,2.1-3.4,3.7-4.4c1.6-1,3.4-1.5,5.5-1.5c1.6,0,2.9,0.3,3.8,0.8c0.9,0.5,1.7,1.1,2.1,1.8c0.5,0.7,0.9,1.2,1.2,1.6h0.3v-12.1
		h3.8V136h-3.6v-3.8h-0.4c-0.3,0.4-0.7,1-1.2,1.7c-0.5,0.7-1.2,1.3-2.2,1.8C671,136.2,669.8,136.5,668.2,136.5z M668.7,133.1
		c1.5,0,2.8-0.4,3.8-1.2c1-0.8,1.8-1.9,2.4-3.3c0.5-1.4,0.8-3.1,0.8-4.9c0-1.8-0.3-3.4-0.8-4.8c-0.5-1.4-1.3-2.5-2.4-3.2
		c-1-0.8-2.3-1.2-3.9-1.2c-1.6,0-2.9,0.4-4,1.2c-1.1,0.8-1.8,1.9-2.4,3.3c-0.5,1.4-0.8,2.9-0.8,4.7c0,1.7,0.3,3.3,0.8,4.8
		c0.5,1.4,1.3,2.5,2.4,3.4C665.8,132.7,667.1,133.1,668.7,133.1z M686.9,136v-24.5h3.6v3.8h0.3c0.5-1.3,1.3-2.3,2.5-3.1
		c1.1-0.7,2.5-1.1,4.1-1.1c1.6,0,3,0.4,4,1.1c1.1,0.7,1.9,1.7,2.5,3.1h0.3c0.6-1.3,1.6-2.3,2.8-3c1.3-0.8,2.8-1.1,4.5-1.1
		c2.2,0,4,0.7,5.4,2.1c1.4,1.4,2.1,3.5,2.1,6.4V136h-3.8v-16.4c0-1.8-0.5-3.1-1.5-3.9c-1-0.8-2.2-1.2-3.5-1.2c-1.7,0-3.1,0.5-4,1.6
		c-0.9,1-1.4,2.3-1.4,3.9v16h-3.8v-16.8c0-1.4-0.5-2.5-1.4-3.4c-0.9-0.9-2.1-1.3-3.5-1.3c-1,0-1.9,0.3-2.7,0.8
		c-0.8,0.5-1.5,1.2-2,2.2c-0.5,0.9-0.8,2-0.8,3.2V136H686.9z M726,136v-24.5h3.8V136H726z M727.9,107.4c-0.7,0-1.4-0.3-1.9-0.8
		c-0.5-0.5-0.8-1.1-0.8-1.8s0.3-1.3,0.8-1.8c0.5-0.5,1.2-0.8,1.9-0.8c0.7,0,1.4,0.2,1.9,0.8c0.5,0.5,0.8,1.1,0.8,1.8
		s-0.3,1.3-0.8,1.8C729.3,107.1,728.6,107.4,727.9,107.4z M740.4,121.2V136h-3.8v-24.5h3.6v3.8h0.3c0.6-1.2,1.4-2.2,2.6-3
		c1.2-0.8,2.7-1.2,4.5-1.2c1.7,0,3.1,0.3,4.4,1c1.2,0.7,2.2,1.7,2.9,3.1c0.7,1.4,1,3.1,1,5.2V136h-3.8v-15.3c0-1.9-0.5-3.4-1.5-4.5
		c-1-1.1-2.4-1.6-4.1-1.6c-1.2,0-2.3,0.3-3.2,0.8c-0.9,0.5-1.7,1.3-2.2,2.3C740.7,118.6,740.4,119.8,740.4,121.2z M763,136v-24.5
		h3.8V136H763z M764.9,107.4c-0.7,0-1.4-0.3-1.9-0.8c-0.5-0.5-0.8-1.1-0.8-1.8s0.3-1.3,0.8-1.8c0.5-0.5,1.2-0.8,1.9-0.8
		c0.7,0,1.4,0.2,1.9,0.8c0.5,0.5,0.8,1.1,0.8,1.8s-0.3,1.3-0.8,1.8C766.3,107.1,765.6,107.4,764.9,107.4z M791.1,117l-3.4,1
		c-0.2-0.6-0.5-1.1-0.9-1.6c-0.4-0.5-1-1-1.7-1.3c-0.7-0.4-1.6-0.5-2.7-0.5c-1.5,0-2.8,0.3-3.8,1c-1,0.7-1.5,1.6-1.5,2.6
		c0,0.9,0.3,1.7,1,2.2c0.7,0.5,1.7,1,3.2,1.4l3.6,0.9c2.2,0.5,3.8,1.3,4.9,2.4c1.1,1.1,1.6,2.5,1.6,4.2c0,1.4-0.4,2.7-1.2,3.8
		c-0.8,1.1-1.9,2-3.4,2.6c-1.4,0.6-3.1,1-5,1c-2.5,0-4.6-0.5-6.2-1.6c-1.6-1.1-2.7-2.7-3.1-4.8l3.6-0.9c0.3,1.3,1,2.3,1.9,3
		c1,0.7,2.2,1,3.8,1c1.8,0,3.2-0.4,4.2-1.1c1-0.8,1.6-1.7,1.6-2.7c0-0.9-0.3-1.6-0.9-2.1c-0.6-0.6-1.5-1-2.7-1.3l-4.1-1
		c-2.2-0.5-3.9-1.4-5-2.5c-1-1.1-1.6-2.5-1.6-4.2c0-1.4,0.4-2.6,1.2-3.7c0.8-1.1,1.9-1.9,3.2-2.5c1.4-0.6,2.9-0.9,4.6-0.9
		c2.4,0,4.3,0.5,5.7,1.6C789.5,113.8,790.5,115.2,791.1,117z M807.9,111.5v3.2h-12.7v-3.2H807.9z M798.8,105.6h3.8V129
		c0,1.1,0.2,1.9,0.5,2.4c0.3,0.5,0.7,0.9,1.2,1.1c0.5,0.2,1,0.3,1.6,0.3c0.4,0,0.8,0,1-0.1c0.3-0.1,0.5-0.1,0.6-0.1l0.8,3.4
		c-0.3,0.1-0.6,0.2-1.1,0.3c-0.5,0.1-1,0.2-1.7,0.2c-1.1,0-2.1-0.2-3.1-0.7c-1-0.5-1.9-1.2-2.5-2.1c-0.7-0.9-1-2.1-1-3.5V105.6z
		 M813.5,136v-24.5h3.6v3.7h0.3c0.4-1.2,1.3-2.2,2.4-3c1.2-0.8,2.5-1.1,4-1.1c0.3,0,0.6,0,1,0c0.4,0,0.7,0,0.9,0v3.8
		c-0.1,0-0.4-0.1-0.9-0.1c-0.4-0.1-0.9-0.1-1.4-0.1c-1.2,0-2.3,0.3-3.2,0.8c-0.9,0.5-1.7,1.2-2.2,2c-0.5,0.9-0.8,1.8-0.8,3V136
		H813.5z M837.5,136.6c-1.6,0-3-0.3-4.2-0.9c-1.3-0.6-2.3-1.5-3-2.6c-0.7-1.1-1.1-2.5-1.1-4.1c0-1.4,0.3-2.5,0.8-3.4
		c0.6-0.9,1.3-1.6,2.2-2.1c0.9-0.5,1.9-0.9,3.1-1.1c1.1-0.3,2.3-0.5,3.4-0.6c1.5-0.2,2.7-0.3,3.6-0.4c0.9-0.1,1.6-0.3,2-0.5
		c0.4-0.2,0.7-0.7,0.7-1.3v-0.1c0-1.6-0.4-2.8-1.3-3.7c-0.9-0.9-2.1-1.3-3.9-1.3c-1.8,0-3.2,0.4-4.2,1.2c-1,0.8-1.7,1.6-2.2,2.5
		l-3.6-1.3c0.6-1.5,1.5-2.7,2.6-3.5c1.1-0.8,2.2-1.4,3.5-1.8c1.3-0.3,2.5-0.5,3.8-0.5c0.8,0,1.7,0.1,2.7,0.3c1,0.2,2,0.6,3,1.1
		c1,0.6,1.8,1.4,2.4,2.6c0.6,1.2,1,2.7,1,4.7V136H845v-3.3h-0.2c-0.3,0.5-0.7,1.1-1.3,1.7c-0.6,0.6-1.4,1.1-2.4,1.6
		C840.1,136.4,838.9,136.6,837.5,136.6z M838.1,133.2c1.5,0,2.7-0.3,3.8-0.9c1-0.6,1.8-1.3,2.3-2.3c0.5-0.9,0.8-1.9,0.8-2.9v-3.5
		c-0.2,0.2-0.5,0.4-1.1,0.5c-0.5,0.1-1.2,0.3-1.9,0.4c-0.7,0.1-1.4,0.2-2,0.3c-0.6,0.1-1.2,0.1-1.6,0.2c-1,0.1-1.9,0.3-2.7,0.6
		c-0.8,0.3-1.5,0.7-2,1.3c-0.5,0.6-0.8,1.3-0.8,2.3c0,1.3,0.5,2.3,1.5,3C835.3,132.9,836.6,133.2,838.1,133.2z M866.3,111.5v3.2
		h-12.7v-3.2H866.3z M857.3,105.6h3.8V129c0,1.1,0.2,1.9,0.5,2.4c0.3,0.5,0.7,0.9,1.2,1.1c0.5,0.2,1,0.3,1.6,0.3c0.4,0,0.8,0,1-0.1
		c0.3-0.1,0.5-0.1,0.6-0.1l0.8,3.4c-0.3,0.1-0.6,0.2-1.1,0.3c-0.5,0.1-1,0.2-1.7,0.2c-1.1,0-2.1-0.2-3.1-0.7c-1-0.5-1.9-1.2-2.5-2.1
		c-0.7-0.9-1-2.1-1-3.5V105.6z M872,136v-24.5h3.8V136H872z M873.9,107.4c-0.7,0-1.4-0.3-1.9-0.8c-0.5-0.5-0.8-1.1-0.8-1.8
		s0.3-1.3,0.8-1.8c0.5-0.5,1.2-0.8,1.9-0.8s1.4,0.2,1.9,0.8c0.5,0.5,0.8,1.1,0.8,1.8s-0.3,1.3-0.8,1.8
		C875.3,107.1,874.6,107.4,873.9,107.4z M892.6,136.5c-2.2,0-4.2-0.5-5.8-1.6c-1.7-1.1-3-2.5-3.9-4.4c-0.9-1.9-1.4-4.1-1.4-6.6
		c0-2.6,0.5-4.8,1.4-6.7c0.9-1.9,2.2-3.4,3.9-4.4c1.7-1.1,3.6-1.6,5.8-1.6c2.2,0,4.2,0.5,5.8,1.6c1.7,1.1,3,2.5,3.9,4.4
		c0.9,1.9,1.4,4.1,1.4,6.7c0,2.5-0.5,4.8-1.4,6.6c-0.9,1.9-2.2,3.4-3.9,4.4C896.8,136,894.8,136.5,892.6,136.5z M892.6,133.1
		c1.7,0,3.1-0.4,4.2-1.3c1.1-0.9,1.9-2,2.4-3.4c0.5-1.4,0.8-2.9,0.8-4.6c0-1.6-0.3-3.2-0.8-4.6c-0.5-1.4-1.3-2.6-2.4-3.4
		c-1.1-0.9-2.5-1.3-4.2-1.3c-1.7,0-3.1,0.4-4.2,1.3c-1.1,0.9-1.9,2-2.4,3.4c-0.5,1.4-0.8,2.9-0.8,4.6c0,1.6,0.3,3.2,0.8,4.6
		c0.5,1.4,1.3,2.5,2.4,3.4C889.6,132.7,890.9,133.1,892.6,133.1z M913.3,121.2V136h-3.8v-24.5h3.6v3.8h0.3c0.6-1.2,1.4-2.2,2.6-3
		c1.2-0.8,2.7-1.2,4.5-1.2c1.7,0,3.1,0.3,4.4,1c1.2,0.7,2.2,1.7,2.9,3.1c0.7,1.4,1,3.1,1,5.2V136h-3.8v-15.3c0-1.9-0.5-3.4-1.5-4.5
		c-1-1.1-2.4-1.6-4.1-1.6c-1.2,0-2.3,0.3-3.2,0.8c-0.9,0.5-1.7,1.3-2.2,2.3C913.5,118.6,913.3,119.8,913.3,121.2z"/>
	<path class="st0" d="M319.8,46.5l6.6,1.8c-9,22.9-27.1,34.3-52.2,40.6c-0.7-1.6-2.6-4.3-3.9-5.8C295,77.9,312.3,67.2,319.8,46.5z
		 M293.1,32.4l6.2,2.4c-5.8,7.9-15,15.6-23,20.6c-1.1-1.3-3.4-3.8-5-4.9C279.4,46.2,288.1,39.4,293.1,32.4z M296.4,46.9
		c7.6,19.4,24.3,31.7,49.7,35.8c-1.4,1.4-3.2,4.2-4.1,5.9c-26.2-5-42.6-18.1-51.4-39.9L296.4,46.9z M272,23.9h72v6h-72V23.9z
		 M304.6,13h6.3v14.7h-6.3V13z M317.6,35.8l5.1-3.8c7.7,5.2,17.4,12.8,22.1,18.2l-5.3,4.3C335,49.1,325.5,41.2,317.6,35.8z
		 M371.8,45.5v29H366V51.2h-12v-5.7H371.8z M371.8,72.1c4,6.1,11.1,8.9,20.7,9.2c9,0.4,28,0.2,37.8-0.5c-0.7,1.4-1.6,4.3-2,6.1
		c-9.1,0.4-26.6,0.6-35.8,0.2c-10.7-0.4-18.2-3.3-23.3-9.8c-4.2,3.5-8.6,7.1-13.3,10.7l-3-6.1c4.1-2.5,9.2-6.2,13.5-9.8H371.8z
		 M355.4,18.9l4.3-3.9c5.2,3.7,11.4,9.3,14.1,13.3l-4.7,4.3C366.5,28.5,360.6,22.7,355.4,18.9z M388.2,26.9l3.9-3.4
		c7.7,2.7,18,7.2,23.5,10.5l-4.2,3.9C406.3,34.6,396.1,29.9,388.2,26.9z M380.4,33.8h42.4v4.8h-36.6v37.7h-5.8V33.8z M419.8,33.8
		h5.9v36.3c0,3-0.6,4.4-2.8,5.3c-2.1,1-5.6,1-11.1,1c-0.2-1.6-1-3.7-1.7-5.1c3.9,0.2,7.3,0.1,8.4,0.1c1.1,0,1.3-0.3,1.3-1.4V33.8z
		 M380.4,16.6h40.9v4.9h-40.9V16.6z M383.6,45.8h38.6v4.6h-38.6V45.8z M383.6,57.8h38.6v4.8h-38.6V57.8z M400,35.8h5.6v40.2H400
		V35.8z M419.3,16.6h1.4l1.3-0.3l3.8,3c-5.5,5.2-13.8,10.2-21.2,13.4c-0.8-1.1-2.4-2.7-3.3-3.6c6.7-2.6,14.4-7.4,18-11.2V16.6z
		 M483.5,18h24.6v5.8h-18.6v64.8h-6V18z M439.8,22.2H479v5.5h-39.2V22.2z M437.6,44.9H480v5.7h-42.4V44.9z M456.3,13.4h6v12.1h-6
		V13.4z M444.9,30.6l5.2-1.1c1.8,4.1,3.4,9.6,3.9,13.2l-5.5,1.3C448,40.3,446.6,34.8,444.9,30.6z M468.4,28.9l5.9,1.4
		c-1.8,4.8-3.8,10.3-5.6,13.9l-4.9-1.3C465.4,39.1,467.4,33,468.4,28.9z M445.4,78.4h27v5.5h-27V78.4z M443.1,57.7h32.3v30.5h-5.9
		v-25h-20.7v25.4h-5.7V57.7z M506.4,18h1.2l1-0.2l4.5,2.9c-3.4,7.7-7.6,17.2-11.4,24.8c8.3,7.6,10.2,14.1,10.3,20
		c0,5-1.1,8.9-4,10.8c-1.5,0.9-3.3,1.5-5.4,1.8c-2,0.2-4.8,0.2-7.1,0.1c-0.1-1.7-0.7-4.3-1.7-6.1c2.4,0.2,4.8,0.2,6.4,0.2
		c1.4-0.1,2.5-0.4,3.5-1c1.8-1.1,2.4-3.4,2.4-6.5c-0.1-5.2-2.5-11.3-10.7-18.5c4.2-8.4,8.6-19.8,11.1-26.2V18z M525.8,27.8h66.1
		v38.6h-6.4V33.9h-53.5v33h-6.2V27.8z M529.1,55.7h60.1v6h-60.1V55.7z M555.5,13.1h6.4v75.4h-6.4V13.1z M605.7,51.7h73.6v6.1h-73.6
		V51.7z M614.8,24.6h56v29.7h-6.4V30.6H621v23.7h-6.2V24.6z M646.4,52.7c5,16,16.3,26.3,34.8,30.2c-1.4,1.3-3.1,3.9-4,5.6
		c-19.2-4.8-30.6-16.2-36.4-34.4L646.4,52.7z M639,13.1h6.2v26.3c0,18.9-4,38.5-36.7,49.3c-0.6-1.6-2.2-4-3.4-5.3
		c30.4-9.9,33.9-27.3,33.9-44V13.1z M705,20.7h55.8v4.9H705V20.7z M705.4,30.8h49.1v4.8h-49.1V30.8z M696.9,40.9h48.9v4.9h-48.9
		V40.9z M691.7,62.1h49.5V67h-49.5V62.1z M706.6,13l6.5,1.6c-4.4,10.8-11.6,20.8-19,27.2c-1.2-1.1-4.1-3-5.7-3.9
		C696,32.1,702.8,22.9,706.6,13z M743.7,40.9h6.1c0.3,21.4,2.1,41.6,8,41.6c1.5,0,2-4.7,2.1-11.9c1.1,1.4,2.9,3,4.2,3.7
		c-0.5,10.2-1.8,14.3-6.7,14.3C746,88.6,744.3,67.7,743.7,40.9z M697.3,51l4.7-2c2.8,3.1,5.6,7.4,6.6,10.3l-5,2.1
		C702.6,58.5,700,54.2,697.3,51z M716,71.2l3.9-3.4c7,3.8,15.9,9.5,20.5,13.4l-4.1,3.9C731.9,81,723,75.1,716,71.2z M713.7,47.6h5.8
		v40.8h-5.8V47.6z M731.6,48.6l5.4,2c-3,3.9-6.3,8.2-8.9,11l-4.1-1.7C726.6,56.8,729.8,51.9,731.6,48.6z M712,64l4.6,1.8
		c-5.2,8.4-14.9,16.8-23.1,21.2c-0.9-1.3-2.7-3.4-3.9-4.5C697.7,78.8,707.1,71.3,712,64z M795.7,54.5l4-3.1
		c19.6,11.2,21.4,29.6,13,35.1c-2.7,1.7-4.8,2.3-8.2,2.3c-1.8,0-4.3-0.1-6.7-0.2c-0.1-1.6-0.7-3.9-1.7-5.6c2.8,0.3,5.6,0.3,7.4,0.3
		c2,0,3.8-0.2,5.3-1.3C814.3,78.4,812.5,64.5,795.7,54.5z M804.2,57.2l4.3,2.3c-7.2,5.8-20.3,11.4-30.4,13.9
		c-0.8-1.3-2.4-3.3-3.4-4.3C784.7,67,797.6,62.2,804.2,57.2z M809.7,64.7l4.4,2.5c-8.8,8.4-24.6,16.1-37.2,19.8
		c-0.8-1.3-2.5-3.4-3.7-4.7C786.1,79.1,801.6,72.1,809.7,64.7z M793.8,18.6H818v4.9h-24.2V18.6z M808.9,44.9l4.8,2.3
		c-9,6.4-23.9,11.6-36.2,14.6c-0.7-1.1-2.3-3.4-3.3-4.5C786.5,54.9,800.8,50.3,808.9,44.9z M816,46c4.8,16.7,15.3,29.8,31.4,35
		c-1.3,1.1-3.1,3.4-3.9,5.1c-16.7-6.3-27.2-20.1-32.6-38.9L816,46z M839.8,49.5l5,3.7c-6.3,4.4-14.8,9.6-21.3,12.6l-3.9-3.2
		C825.9,59.5,834.8,53.8,839.8,49.5z M787.7,34.4v9.4h44.9v-9.4H787.7z M781.9,29.7h56.7v18.9h-56.7V29.7z M796.1,12.9l6.4,1.3
		c-5.7,8.2-14,16.8-25.3,23.7c-0.9-1.4-2.9-3.4-4.2-4.3C783.7,27.7,791.7,19.6,796.1,12.9z M806.6,32h6.1v14.6h-6.1V32z M815.7,18.6
		h1.3l1-0.2l4.2,2.7c-2.6,4.6-7,9.8-10.6,13c-1.1-0.8-3.1-2.1-4.5-2.9c3.4-3,7-8,8.6-11.4V18.6z M905.8,20.9v8h13.9v-8H905.8z
		 M886.4,20.9v8H900v-8H886.4z M867.7,20.9v8h13.1v-8H867.7z M861.7,16.4h64v17h-64V16.4z M857.1,50.3h73v5.1h-73V50.3z M865.3,39.1
		h47.2V44h-47.2V39.1z M877.4,70.9H919v4.3h-41.6V70.9z M877.2,81.2h41.7v4.7h-41.7V81.2z M920.9,36.2l4.9,3.1
		c-16.1,15.8-42.4,26.3-67.4,32.5c-0.6-1.3-2.1-4-3.1-5.2C880.3,61.1,906.2,50.8,920.9,36.2z M888,33.4h6v19.3h-6V33.4z M880,60.9
		h39.4v4.6H880v23h-5.7v-24l3.5-3.5H880z M916.5,60.9h5.9v27.4h-5.9V60.9z"/>
</g>
</svg>
